<svg width="124" height="86" viewBox="0 0 124 86" fill="none" xmlns="http://www.w3.org/2000/svg">
<rect width="124" height="86" fill="#D7E8D8"/>
<path d="M37.022 21.96C37.562 21.08 38.262 20.39 39.122 19.89C40.002 19.39 41.002 19.14 42.122 19.14V23.55H41.012C39.692 23.55 38.692 23.86 38.012 24.48C37.352 25.1 37.022 26.18 37.022 27.72V36H32.822V19.38H37.022V21.96ZM64.0009 27.33C64.0009 27.93 63.9609 28.47 63.8809 28.95H51.7309C51.8309 30.15 52.2509 31.09 52.9909 31.77C53.7309 32.45 54.6409 32.79 55.7209 32.79C57.2809 32.79 58.3909 32.12 59.0509 30.78H63.5809C63.1009 32.38 62.1809 33.7 60.8209 34.74C59.4609 35.76 57.7909 36.27 55.8109 36.27C54.2109 36.27 52.7709 35.92 51.4909 35.22C50.2309 34.5 49.2409 33.49 48.5209 32.19C47.8209 30.89 47.4709 29.39 47.4709 27.69C47.4709 25.97 47.8209 24.46 48.5209 23.16C49.2209 21.86 50.2009 20.86 51.4609 20.16C52.7209 19.46 54.1709 19.11 55.8109 19.11C57.3909 19.11 58.8009 19.45 60.0409 20.13C61.3009 20.81 62.2709 21.78 62.9509 23.04C63.6509 24.28 64.0009 25.71 64.0009 27.33ZM59.6509 26.13C59.6309 25.05 59.2409 24.19 58.4809 23.55C57.7209 22.89 56.7909 22.56 55.6909 22.56C54.6509 22.56 53.7709 22.88 53.0509 23.52C52.3509 24.14 51.9209 25.01 51.7609 26.13H59.6509ZM80.5065 36L74.8665 28.92V36H70.6665V13.8H74.8665V26.43L80.4465 19.38H85.9065L78.5865 27.72L85.9665 36H80.5065Z" fill="black"/>
<path d="M25.808 64.17V56.13C25.808 55.57 25.938 55.16 26.198 54.9C26.478 54.66 26.938 54.54 27.578 54.54H29.528V51H26.888C23.348 51 21.578 52.72 21.578 56.16V64.17H19.598V67.62H21.578V71.73H25.808V67.62H29.528V64.17H25.808ZM35.0689 59.37C35.0689 61.05 35.3989 62.54 36.0589 63.84C36.7389 65.14 37.6489 66.14 38.7889 66.84C39.9489 67.54 41.2389 67.89 42.6589 67.89C43.8989 67.89 44.9789 67.64 45.8989 67.14C46.8389 66.64 47.5889 66.01 48.1489 65.25V67.62H52.3789V51H48.1489V53.43C47.6089 52.65 46.8589 52 45.8989 51.48C44.9589 50.98 43.8689 50.73 42.6289 50.73C41.2289 50.73 39.9489 51.09 38.7889 51.81C37.6489 52.53 36.7389 53.54 36.0589 54.84C35.3989 56.16 35.0689 57.67 35.0689 59.37ZM48.1489 59.31C48.1489 60.33 47.9489 61.2 47.5489 61.92C47.1489 62.66 46.6089 63.22 45.9289 63.6C45.2489 64 44.5189 64.2 43.7389 64.2C42.9589 64.2 42.2389 64.01 41.5789 63.63C40.9189 63.25 40.3789 62.69 39.9589 61.95C39.5589 61.23 39.3589 60.37 39.3589 59.37C39.3589 58.37 39.5589 57.49 39.9589 56.73C40.3789 55.99 40.9189 55.42 41.5789 55.02C42.2589 54.62 42.9789 54.42 43.7389 54.42C44.5189 54.42 45.2489 54.61 45.9289 54.99C46.6089 55.39 47.1489 55.95 47.5489 56.67C47.9489 57.41 48.1489 58.29 48.1489 59.31ZM75.9809 67.62L65.6909 43.14H61.2209L64.8209 51.42L58.1609 67.62H62.8709L67.1609 56.01L71.5109 67.62H75.9809ZM80.765 59.37C80.765 61.05 81.095 62.54 81.755 63.84C82.435 65.14 83.345 66.14 84.485 66.84C85.645 67.54 86.935 67.89 88.355 67.89C89.595 67.89 90.675 67.64 91.595 67.14C92.535 66.64 93.285 66.01 93.845 65.25V67.62H98.075V51H93.845V53.43C93.305 52.65 92.555 52 91.595 51.48C90.655 50.98 89.565 50.73 88.325 50.73C86.925 50.73 85.645 51.09 84.485 51.81C83.345 52.53 82.435 53.54 81.755 54.84C81.095 56.16 80.765 57.67 80.765 59.37ZM93.845 59.31C93.845 60.33 93.645 61.2 93.245 61.92C92.845 62.66 92.305 63.22 91.625 63.6C90.945 64 90.215 64.2 89.435 64.2C88.655 64.2 87.935 64.01 87.275 63.63C86.615 63.25 86.075 62.69 85.655 61.95C85.255 61.23 85.055 60.37 85.055 59.37C85.055 58.37 85.255 57.49 85.655 56.73C86.075 55.99 86.615 55.42 87.275 55.02C87.955 54.62 88.675 54.42 89.435 54.42C90.215 54.42 90.945 54.61 91.625 54.99C92.305 55.39 92.845 55.95 93.245 56.67C93.645 57.41 93.845 58.29 93.845 59.31Z" fill="black"/>
</svg>
